<?xml version="1.0" standalone="no"?>
<!DOCTYPE svg PUBLIC "-//W3C//DTD SVG 20010904//EN"
 "http://www.w3.org/TR/2001/REC-SVG-20010904/DTD/svg10.dtd">
<svg version="1.0" xmlns="http://www.w3.org/2000/svg"
 width="50.000000pt" height="50.000000pt" viewBox="0 0 570.000000 570.000000"
 preserveAspectRatio="xMidYMid meet">

<g transform="translate(0.000000,570.000000) scale(0.100000,-0.100000)"
fill="#000000" stroke="none">
<path d="M928 5663 c-25 -6 -23 -49 6 -109 27 -55 80 -169 106 -229 29 -66 70
-155 112 -245 22 -47 44 -94 48 -105 4 -11 21 -49 38 -85 16 -36 41 -90 55
-120 14 -30 39 -86 57 -125 33 -72 57 -125 89 -197 10 -24 34 -77 54 -118 53
-114 83 -181 102 -225 9 -22 37 -83 62 -135 25 -52 54 -114 64 -137 11 -24 27
-62 38 -85 10 -24 35 -78 55 -121 20 -43 36 -82 36 -88 0 -5 5 -9 10 -9 6 0
10 -7 10 -15 0 -8 4 -23 9 -33 5 -9 18 -38 30 -64 40 -90 59 -133 104 -228 25
-52 52 -112 61 -132 36 -85 50 -117 83 -188 125 -269 173 -376 173 -389 0 -5
7 -14 15 -21 8 -7 13 -16 10 -20 -3 -5 2 -15 10 -23 8 -9 15 -20 15 -26 0 -6
4 -19 9 -29 5 -9 18 -37 29 -62 21 -48 57 -126 117 -255 47 -102 75 -165 85
-190 5 -11 29 -65 55 -120 48 -102 70 -151 104 -228 22 -50 85 -186 112 -240
10 -22 19 -45 19 -53 0 -8 5 -14 10 -14 6 0 10 -7 10 -15 0 -8 4 -23 9 -33 11
-20 59 -124 107 -231 19 -42 39 -84 44 -93 6 -10 10 -25 10 -33 0 -8 5 -15 10
-15 6 0 10 -6 10 -13 0 -8 14 -42 31 -78 31 -65 67 -143 99 -214 10 -22 31
-69 48 -105 16 -36 42 -92 57 -125 14 -33 35 -77 46 -98 10 -22 19 -45 19 -53
0 -8 4 -14 9 -14 5 0 11 -10 13 -22 2 -14 13 -25 28 -29 31 -9 457 -11 488 -3
34 10 37 46 9 106 -62 132 -96 207 -117 253 -65 146 -106 237 -150 330 -21 44
-44 96 -53 115 -51 119 -111 249 -158 343 -10 22 -19 45 -19 53 0 8 -4 14 -10
14 -5 0 -10 7 -10 15 0 8 -4 23 -9 33 -5 9 -24 49 -41 87 -18 39 -43 95 -57
125 -24 53 -40 89 -84 187 -12 27 -25 55 -30 63 -5 8 -14 26 -20 40 -5 14 -21
48 -33 75 -13 28 -31 68 -41 90 -9 22 -27 63 -40 90 -12 28 -33 73 -45 100
-12 28 -38 84 -57 125 -19 41 -43 93 -53 115 -10 22 -33 72 -51 110 -19 39
-34 73 -34 77 0 4 -6 13 -12 20 -7 6 -13 18 -13 25 0 7 -4 21 -9 31 -9 16 -31
64 -84 182 -13 30 -41 91 -62 135 -49 107 -76 166 -85 190 -4 11 -28 63 -54
116 -25 53 -46 101 -46 108 0 6 -4 11 -10 11 -5 0 -10 7 -10 15 0 8 -4 23 -9
33 -5 9 -18 37 -29 62 -27 61 -90 196 -113 243 -10 22 -19 45 -19 53 0 8 -4
14 -10 14 -5 0 -10 7 -10 15 0 8 -4 23 -9 33 -11 19 -71 150 -108 232 -14 30
-36 80 -50 110 -14 30 -33 73 -43 95 -10 22 -34 73 -54 114 -20 41 -36 80 -36
88 0 7 -4 13 -10 13 -5 0 -10 7 -10 15 0 8 -4 23 -9 33 -10 18 -46 97 -81 177
-12 28 -40 88 -62 135 -97 205 -103 223 -89 249 6 11 20 25 31 31 12 7 312 10
882 10 881 -1 938 -3 1088 -40 25 -6 60 -14 78 -17 18 -3 35 -9 38 -14 3 -5
16 -9 30 -9 13 0 24 -4 24 -10 0 -5 7 -10 15 -10 8 0 23 -4 33 -9 9 -5 33 -17
52 -25 41 -19 163 -94 170 -105 3 -5 10 -10 16 -12 13 -4 104 -81 143 -119
105 -104 195 -227 256 -350 48 -95 50 -101 73 -180 52 -177 70 -340 54 -488
-13 -113 -29 -204 -42 -237 -4 -11 -13 -38 -19 -60 -7 -22 -17 -50 -22 -62 -5
-13 -14 -35 -20 -50 -6 -16 -15 -35 -20 -43 -4 -8 -21 -39 -36 -67 -15 -29
-31 -53 -35 -53 -4 0 -8 -6 -8 -13 0 -7 -8 -22 -18 -33 -9 -10 -30 -37 -46
-58 -52 -69 -209 -217 -281 -265 -104 -68 -104 -68 -185 -107 -41 -19 -83 -40
-92 -45 -10 -5 -27 -9 -37 -9 -11 0 -22 -4 -25 -9 -3 -5 -20 -11 -38 -14 -18
-3 -55 -11 -83 -17 -27 -5 -79 -13 -115 -16 -36 -4 -73 -11 -82 -16 -24 -12
-23 -55 4 -109 12 -24 21 -47 20 -51 -1 -3 5 -12 13 -18 8 -7 15 -18 15 -25 0
-7 8 -30 19 -52 10 -21 28 -58 39 -83 71 -160 69 -158 127 -142 25 7 56 12 70
12 13 0 34 4 47 9 13 5 43 14 68 21 69 19 162 51 190 65 14 7 66 32 115 56 50
24 109 56 132 71 23 15 44 28 47 28 7 0 98 62 111 76 5 6 35 30 65 54 69 55
186 172 225 225 16 22 32 42 35 45 12 11 99 138 124 180 14 25 48 92 76 150
28 58 55 113 61 122 5 10 9 27 9 37 0 11 4 23 10 26 5 3 10 17 10 30 0 13 4
27 10 30 6 3 10 19 10 35 0 16 4 31 9 34 5 3 11 23 15 43 3 21 10 65 16 98 37
219 28 558 -20 730 -6 22 -14 51 -16 65 -3 14 -9 34 -13 45 -5 11 -14 38 -20
60 -42 136 -190 405 -289 527 -78 95 -200 217 -289 289 -44 36 -183 129 -192
129 -5 0 -11 3 -13 8 -3 6 -204 108 -263 132 -56 24 -193 64 -270 79 -27 6
-77 16 -110 23 -46 9 -374 13 -1405 14 -740 1 -1353 0 -1362 -3z"/>
<path d="M552 4717 c-13 -28 -28 -61 -32 -72 -5 -11 -34 -74 -65 -140 -31 -66
-60 -129 -64 -140 -5 -11 -18 -40 -30 -63 -22 -46 -27 -100 -12 -130 5 -9 17
-35 26 -57 17 -41 41 -91 103 -225 19 -41 43 -94 53 -117 45 -102 59 -133 104
-228 25 -55 50 -109 55 -120 4 -11 19 -45 33 -75 14 -30 36 -80 50 -110 13
-30 41 -91 62 -135 41 -89 64 -140 90 -200 10 -22 35 -78 57 -125 43 -93 62
-134 103 -225 15 -33 45 -98 67 -145 42 -88 74 -160 89 -195 11 -27 69 -155
109 -241 36 -78 60 -131 85 -189 10 -22 35 -76 56 -120 22 -43 39 -85 39 -92
0 -7 5 -13 10 -13 6 0 10 -7 10 -15 0 -8 4 -23 9 -33 5 -9 20 -42 34 -72 28
-63 75 -165 119 -260 17 -36 38 -83 48 -105 10 -22 33 -71 51 -110 18 -38 33
-73 33 -76 1 -3 11 -26 24 -52 12 -26 31 -66 41 -89 37 -83 69 -154 100 -218
17 -36 31 -70 31 -77 0 -7 5 -13 10 -13 6 0 10 -9 10 -19 0 -11 5 -23 10 -26
6 -3 10 -15 10 -26 0 -10 5 -19 10 -19 6 0 10 -7 10 -15 0 -8 4 -23 9 -33 16
-31 98 -206 112 -239 10 -24 21 -32 49 -37 46 -8 449 -7 478 0 16 5 22 14 22
35 0 16 -4 37 -9 47 -5 9 -17 35 -26 57 -10 22 -35 78 -57 125 -22 47 -44 94
-48 105 -8 21 -43 98 -104 230 -37 79 -58 125 -95 207 -10 24 -40 88 -66 143
-50 105 -82 177 -95 210 -5 11 -25 56 -45 100 -93 201 -133 288 -146 320 -4
11 -28 64 -53 117 -25 53 -46 101 -46 107 0 6 -4 11 -10 11 -5 0 -10 7 -10 15
0 8 -4 23 -9 33 -5 9 -21 44 -36 77 -15 33 -45 98 -67 145 -48 101 -78 168
-88 195 -5 11 -29 64 -54 118 -25 54 -46 102 -46 107 0 6 -4 10 -10 10 -5 0
-10 7 -10 16 0 8 -14 45 -31 82 -17 37 -39 85 -49 107 -10 22 -39 85 -65 140
-26 55 -51 109 -55 120 -10 27 -40 93 -88 195 -53 113 -94 204 -151 332 -12
26 -21 52 -21 57 0 5 -7 14 -15 21 -8 6 -13 15 -12 19 1 4 -8 28 -20 54 -13
26 -32 66 -42 90 -10 23 -35 76 -54 117 -19 41 -45 98 -57 125 -12 28 -36 79
-52 115 -17 36 -34 74 -38 85 -5 11 -28 63 -53 115 -24 52 -52 113 -62 135
-22 51 -58 129 -104 227 -33 72 -38 78 -66 78 -27 0 -33 -6 -53 -53z"/>
</g>
</svg>
